# xmcd
#
# Track frame offsets: 
#        150
#        22702
#        42812
#        63960
#        85982
#        103215
#        123532
#        141237
#        158787
#        176505
#        200970
#        212237
#        233930
#        253592
#        274797
#        292595
#        301165
#        318192
#
# Disc length: 4491 seconds
#
# Revision: 2
# Processed by: cddbd v1.5.2PL0 Copyright (c) Steve Scherf et al.
# Submitted via: ExactAudioCopy v1.3
#
DISCID=fc118912
DTITLE=Angie Stone - Mahogany Soul
DYEAR=2001
DGENRE=Neo Soul
TTITLE0=Soul Insurance
TTITLE1=Brotha
TTITLE2=Pissed Off
TTITLE3=More Than A Woman (Duet with Calvin)
TTITLE4=Snowflakes
TTITLE5=Wish I Didn't Miss You
TTITLE6=Easier Said Than Done
TTITLE7=Bottles and Cans
TTITLE8=Ingredients Of Love (Duet with Musiq Soulchild)
TTITLE9=What You Dyin' For
TTITLE10=Makings Of You (Interlude)
TTITLE11=Mad Issues
TTITLE12=If It Wasn't
TTITLE13=20 Dollars
TTITLE14=Life Goes On
TTITLE15=The Heat (Outro)
TTITLE16=Brotha (Pt. 2) (feat. Alicia Keys and Eve)
TTITLE17=Time Of The Month
EXTD=ID3G: 14
EXTT0=
EXTT1=
EXTT2=
EXTT3=
EXTT4=
EXTT5=
EXTT6=
EXTT7=
EXTT8=
EXTT9=
EXTT10=
EXTT11=
EXTT12=
EXTT13=
EXTT14=
EXTT15=
EXTT16=
EXTT17=
PLAYORDER=
